<?xml version="1.0" encoding="UTF-8" standalone="no"?>
<!DOCTYPE svg PUBLIC "-//W3C//DTD SVG 20000802//EN" "http://www.w3.org/TR/2000/CR-SVG-20000802/DTD/svg-20000802.dtd">
<svg height="400" width="600" xmlns="http://www.w3.org/2000/svg">
  <rect fill="#a26103" height="248" width="91" x="361" y="126"/>
  <rect fill="#8bd62a" height="21" width="6" x="401" y="104"/>
  <rect fill="#9c15b2" height="110" width="37" x="157" y="24"/>
  <rect fill="#a0e4d5" height="14" width="165" x="399" y="195"/>
  <rect fill="#48cccf" height="164" width="19" x="310" y="96"/>
  <rect fill="#1edf56" height="19" width="89" x="124" y="312"/>
  <rect fill="#335367" height="35" width="9" x="583" y="53"/>
  <rect fill="#a3c2ca" height="309" width="97" x="484" y="39"/>
  <rect fill="#4efe2a" height="151" width="137" x="292" y="228"/>
  <rect fill="#ed84b3" height="163" width="182" x="311" y="193"/>
  <rect fill="#296033" height="18" width="32" x="465" y="211"/>
  <rect fill="#0ea8c2" height="223" width="135" x="250" y="56"/>
  <rect fill="#abf355" height="29" width="75" x="85" y="212"/>
  <rect fill="#e1bf79" height="0" width="90" x="128" y="259"/>
  <rect fill="#1f143e" height="198" width="236" x="120" y="127"/>
  <rect fill="#3d3018" height="17" width="108" x="435" y="371"/>
  <rect fill="#f93974" height="263" width="305" x="76" y="68"/>
  <rect fill="#f664c0" height="16" width="439" x="101" y="203"/>
  <rect fill="#e37a2f" height="53" width="28" x="565" y="346"/>
  <rect fill="#099d57" height="101" width="7" x="572" y="264"/>
  <rect fill="#0f24d4" height="144" width="64" x="518" y="240"/>
  <rect fill="#dcd783" height="55" width="148" x="330" y="343"/>
  <rect fill="#0f88ab" height="137" width="30" x="109" y="57"/>
</svg>
