<?xml version="1.0" ?><!DOCTYPE svg PUBLIC "-//W3C//DTD SVG 20000802//EN" "http://www.w3.org/TR/2000/CR-SVG-20000802/DTD/svg-20000802.dtd"><svg xmlns="http://www.w3.org/2000/svg" width="600" height="400"><rect x="565" y="326" width="5" height="61" fill="#cd91f3"/><rect x="398" y="243" width="131" height="59" fill="#2f2c18"/><rect x="403" y="371" width="37" height="15" fill="#8ffcb7"/><rect x="118" y="381" width="201" height="6" fill="#0770c6"/><rect x="47" y="320" width="291" height="63" fill="#f72d7c"/><rect x="483" y="330" width="93" height="15" fill="#ca336e"/><rect x="280" y="394" width="155" height="3" fill="#c5f858"/><rect x="229" y="11" width="253" height="130" fill="#6f6d95"/><rect x="321" y="378" width="269" height="9" fill="#3f9f19"/><rect x="177" y="267" width="379" height="38" fill="#0a25d4"/><rect x="221" y="388" width="264" height="3" fill="#7cc1b1"/><rect x="275" y="162" width="287" height="12" fill="#94ff97"/><rect x="324" y="214" width="174" height="15" fill="#209e72"/><rect x="174" y="104" width="161" height="73" fill="#668d24"/><rect x="6" y="162" width="229" height="73" fill="#4a3ba8"/><rect x="143" y="384" width="424" height="9" fill="#ea1c4d"/><rect x="106" y="84" width="49" height="126" fill="#a029c5"/><rect x="97" y="283" width="484" height="12" fill="#3afcce"/><rect x="390" y="374" width="97" height="23" fill="#f9b208"/><rect x="76" y="299" width="197" height="15" fill="#636cfd"/><rect x="528" y="129" width="16" height="189" fill="#937071"/><rect x="446" y="170" width="132" height="130" fill="#2c9b80"/><rect x="249" y="323" width="99" height="54" fill="#7770d4"/><rect x="54" y="340" width="196" height="22" fill="#a943eb"/><rect x="198" y="242" width="143" height="95" fill="#4c9d5c"/><rect x="33" y="94" width="547" height="204" fill="#4230d2"/></svg>